<?xml version="1.0" standalone="no"?>
<!DOCTYPE svg PUBLIC "-//W3C//DTD SVG 20010904//EN"
 "http://www.w3.org/TR/2001/REC-SVG-20010904/DTD/svg10.dtd">
<svg version="1.0" xmlns="http://www.w3.org/2000/svg"
 width="512.000000pt" height="512.000000pt" viewBox="0 0 512.000000 512.000000"
 preserveAspectRatio="xMidYMid meet">
<metadata>
Created by potrace 1.14, written by Peter Selinger 2001-2017
</metadata>
<g transform="translate(0.000000,512.000000) scale(0.100000,-0.100000)"
fill="#000000" stroke="none">
<path d="M3368 4365 c-1 -2 -28 -5 -58 -6 -30 -2 -75 -8 -100 -15 -234 -61
-361 -146 -496 -332 -49 -67 -56 -86 -42 -117 11 -24 80 -75 102 -75 23 0 21
-8 -23 -92 -53 -99 -80 -201 -88 -325 -5 -92 -8 -102 -27 -107 -36 -10 -44 -7
-48 16 -2 18 -12 24 -43 30 -22 3 -56 13 -75 20 -38 16 -68 17 -87 5 -7 -4
-38 -1 -70 7 -91 23 -189 33 -303 31 -198 -4 -279 -22 -449 -101 -51 -24 -95
-44 -96 -44 -2 0 -20 23 -40 51 -20 28 -45 54 -56 56 -11 3 -19 14 -19 27 0
12 -7 46 -15 74 -20 67 -62 101 -130 104 -41 1 -51 -3 -72 -26 -14 -16 -23
-40 -23 -59 0 -38 33 -104 66 -132 17 -15 21 -24 13 -32 -6 -6 -9 -26 -7 -44
2 -26 9 -36 29 -43 33 -11 95 17 118 54 19 32 27 26 55 -38 l19 -43 -50 -52
c-77 -81 -113 -121 -113 -129 0 -5 -8 -16 -19 -27 -25 -25 -102 -188 -139
-296 -34 -97 -48 -157 -57 -226 -11 -93 -17 -119 -32 -128 -13 -7 -15 -19 -10
-58 3 -27 2 -55 -3 -62 -4 -8 -4 -26 2 -41 8 -23 4 -38 -21 -87 -33 -63 -70
-114 -72 -98 -2 28 -9 49 -16 56 -16 16 -68 26 -90 18 -23 -8 -53 -57 -46 -75
2 -5 -11 -17 -29 -25 -27 -11 -34 -20 -36 -49 -3 -36 16 -69 48 -84 9 -3 5 -4
-8 -2 -12 2 -22 -1 -22 -7 0 -6 -3 -7 -7 -4 -3 4 -13 1 -22 -6 -14 -10 -14
-10 -4 3 13 17 12 37 -1 58 -20 33 -109 -16 -118 -64 -3 -16 3 -19 42 -17 25
1 38 -1 30 -4 -65 -25 -163 -78 -178 -98 -11 -13 -18 -37 -17 -56 1 -30 -3
-35 -45 -55 -76 -35 -99 -76 -75 -137 6 -14 2 -17 -21 -17 -36 0 -112 -34
-120 -53 -22 -57 7 -139 62 -176 19 -13 34 -29 34 -36 0 -25 62 -97 113 -131
29 -19 68 -46 87 -60 33 -25 39 -26 128 -20 82 5 95 3 111 -13 42 -42 67 -50
171 -58 44 -3 101 -15 137 -29 87 -34 131 -33 229 7 28 11 38 10 85 -10 71
-31 144 -24 259 23 46 19 86 33 88 32 2 -2 -4 -21 -12 -41 -20 -48 -27 -129
-14 -165 17 -51 44 -48 102 8 28 28 63 56 79 61 16 6 27 18 27 30 0 10 8 25
17 32 15 12 16 12 10 -4 -4 -10 -4 -44 0 -77 10 -99 24 -94 194 78 l146 147
54 -2 c30 -1 171 -2 314 -4 191 -1 264 -5 275 -14 8 -7 57 -31 109 -54 79 -36
103 -42 150 -40 129 6 301 86 301 140 0 21 14 25 185 49 44 6 90 13 103 15 20
3 22 2 12 -11 -7 -7 -19 -14 -26 -14 -8 0 -14 -10 -14 -24 0 -21 6 -25 49 -31
34 -5 59 -2 78 7 24 12 28 19 27 56 -1 30 2 40 10 32 19 -19 84 -12 106 13 12
12 24 22 28 22 19 2 122 28 155 41 47 18 47 18 47 -4 0 -30 43 -63 88 -66 48
-4 163 19 204 40 28 14 58 65 58 98 0 8 -11 28 -25 45 l-26 30 78 40 c105 55
160 105 211 189 58 99 53 140 -25 177 -21 9 -50 32 -65 50 -23 26 -26 38 -21
69 4 27 13 40 29 46 28 11 45 40 39 70 -6 31 -16 39 -49 42 -20 2 -31 11 -43
35 -13 28 -21 33 -48 33 -54 0 -85 -16 -91 -49 -6 -30 -59 -78 -68 -62 -3 5
-32 22 -63 38 -143 75 -227 123 -218 125 6 1 61 3 124 3 97 0 115 3 125 18 9
14 6 21 -19 41 l-30 24 43 38 c24 23 47 55 54 78 7 22 20 40 28 42 64 10 106
56 110 119 6 87 -2 93 -54 41 -35 -34 -75 -49 -97 -35 -8 5 3 25 38 66 27 32
54 70 60 85 15 33 9 98 -9 109 -14 10 -14 10 -113 13 -95 4 -165 15 -194 30
-19 11 -24 22 -26 62 -3 60 -12 109 -31 177 -8 29 -16 57 -17 62 -1 6 -5 15
-9 20 -3 6 -9 26 -13 45 -4 19 -11 40 -15 45 -12 16 -19 56 -9 49 5 -3 25 0
44 6 81 27 150 174 114 241 -6 11 -12 41 -14 67 -2 26 -11 51 -19 57 -16 12
-111 12 -163 1 -27 -6 -33 -4 -33 9 0 8 8 19 18 22 29 11 90 54 95 67 3 7 -2
28 -11 47 -8 18 -16 41 -16 49 -4 45 -30 110 -47 115 -11 4 -19 14 -19 24 0 9
-4 21 -8 26 -5 6 -15 26 -22 45 -16 42 -120 198 -157 234 -17 17 -36 26 -57
25 -17 0 -69 13 -116 30 -100 35 -123 40 -210 47 -36 3 -70 7 -77 9 -6 2 -13
2 -15 0z m775 -946 c19 -21 24 -45 14 -66 -5 -13 -15 -23 -21 -23 -21 0 -96
79 -96 100 0 7 97 -4 103 -11z m-109 -271 c3 -18 8 -73 10 -123 l5 -90 -18 74
c-10 41 -22 113 -25 160 -5 82 -5 84 8 49 8 -20 17 -52 20 -70z m327 -762 c15
-13 34 -26 41 -29 16 -5 -15 -43 -53 -62 -22 -12 -31 -11 -67 5 -46 21 -51 33
-24 55 48 39 67 54 71 55 2 0 16 -11 32 -24z m-521 -28 c0 -6 8 -21 18 -32 17
-20 17 -20 -8 -4 -26 16 -40 48 -21 48 6 0 11 -5 11 -12z m-2026 -143 c-4 -8
-8 -15 -10 -15 -2 0 -4 7 -4 15 0 8 4 15 10 15 5 0 7 -7 4 -15z m2523 -1023
c14 -56 -86 -83 -138 -36 -26 24 -24 30 14 39 17 4 37 9 44 10 6 2 19 7 29 13
25 14 43 4 51 -26z m-979 -174 c-2 -6 -22 -21 -43 -32 -46 -24 -166 -29 -260
-11 -58 11 -59 12 -25 18 19 4 64 9 100 12 96 7 174 17 179 21 11 10 52 3 49
-8z"/>
<path d="M2561 4308 c-12 -10 -29 -38 -38 -60 -13 -33 -19 -39 -37 -33 -87 27
-96 28 -121 11 -33 -21 -32 -56 1 -106 32 -48 86 -84 113 -75 11 3 31 20 45
36 21 24 29 28 44 20 61 -33 117 61 91 152 -20 67 -61 90 -98 55z"/>
<path d="M4352 3234 c-67 -53 -104 -190 -67 -248 21 -31 75 -59 107 -54 30 4
47 51 29 80 -11 17 -10 23 7 42 50 54 61 147 22 186 -27 27 -58 25 -98 -6z"/>
<path d="M4713 1822 c-11 -7 -16 -26 -14 -49 3 -32 93 -51 131 -28 15 9 4 56
-17 73 -18 13 -81 16 -100 4z"/>
<path d="M3512 973 c-30 -6 -45 -35 -28 -58 10 -14 21 -16 49 -11 43 8 60 42
31 63 -10 7 -20 12 -23 12 -3 -1 -16 -4 -29 -6z"/>
<path d="M2096 828 c-16 -23 -6 -57 17 -59 7 0 22 -2 34 -5 27 -5 92 22 100
41 11 29 -17 45 -78 45 -48 0 -60 -4 -73 -22z"/>
</g>
</svg>
